<?xml version="1.0" standalone="no"?>
<!DOCTYPE svg PUBLIC "-//W3C//DTD SVG 20010904//EN"
 "http://www.w3.org/TR/2001/REC-SVG-20010904/DTD/svg10.dtd">
<svg version="1.0" xmlns="http://www.w3.org/2000/svg"
 width="541.000000pt" height="541.000000pt" viewBox="0 0 541.000000 541.000000"
 preserveAspectRatio="xMidYMid meet">
<metadata>
Created by potrace 1.14, written by Peter Selinger 2001-2017
</metadata>
<g transform="translate(0.000000,541.000000) scale(0.100000,-0.100000)"
fill="#000000" stroke="none">
<path d="M769 5387 c-2 -12 -4 -537 -4 -1167 l0 -1145 50 -1 c28 -1 160 -5
295 -8 135 -4 340 -9 455 -12 384 -11 429 -12 571 -14 77 -1 146 -5 151 -8 7
-5 10 -89 8 -239 -1 -128 2 -233 5 -233 4 0 27 21 52 48 25 26 110 110 188
187 366 361 560 575 560 619 0 41 -154 240 -295 381 -182 181 -472 445 -490
445 -7 0 -15 -6 -18 -12 -3 -11 -1 -157 6 -332 l2 -39 -75 -3 c-41 -2 -206 -5
-367 -8 l-291 -5 3 370 c2 204 6 373 8 376 5 4 159 4 712 -2 182 -2 602 -6
934 -10 332 -3 607 -7 610 -9 6 -4 4 -1303 -2 -1996 l-2 -245 -757 0 c-416 0
-759 -3 -762 -6 -4 -4 -12 -690 -16 -1432 l0 -78 -352 3 -353 3 -3 750 c-2
412 -4 750 -5 751 -1 1 -146 5 -322 8 -176 4 -361 8 -411 9 l-91 2 -1 -150 c0
-82 -3 -605 -6 -1161 l-7 -1011 383 -2 c1324 -8 1978 -9 1979 -3 0 4 2 339 4
746 2 406 7 741 9 744 5 5 454 9 1163 12 247 1 344 4 350 12 3 7 8 877 10
1935 l4 1923 -158 1 c-87 0 -333 2 -548 4 -369 3 -1290 10 -2591 20 l-582 5
-3 -23z"/>
</g>
</svg>
